HIERARCHY
ROOT Hips
{
	OFFSET 0.000000 0.000000 0.000000
	CHANNELS 6 Xposition Yposition Zposition Zrotation Yrotation Xrotation 
	JOINT LHipJoint
	{
		OFFSET 0.000000 0.000000 0.000000
		CHANNELS 3 Zrotation Yrotation Xrotation
		JOINT LeftUpLeg
		{
			OFFSET 1.363060 -1.794630 0.839290
			CHANNELS 3 Zrotation Yrotation Xrotation
			JOINT LeftLeg
			{
				OFFSET 2.448110 -6.726130 0.000000
				CHANNELS 3 Zrotation Yrotation Xrotation
				JOINT LeftFoot
				{
					OFFSET 2.562200 -7.039590 0.000000
					CHANNELS 3 Zrotation Yrotation Xrotation
					JOINT LeftToeBase
					{
						OFFSET 0.157640 -0.433110 2.322550
						CHANNELS 3 Zrotation Yrotation Xrotation
						End Site
						{
							OFFSET 0.000000 0.000000 0.000000
						}
					}
				}
			}
		}
	}
	JOINT RHipJoint
	{
		OFFSET 0.000000 0.000000 0.000000
		CHANNELS 3 Zrotation Yrotation Xrotation
		JOINT RightUpLeg
		{
			OFFSET -1.305520 -1.794630 0.839290
			CHANNELS 3 Zrotation Yrotation Xrotation
			JOINT RightLeg
			{
				OFFSET -2.542530 -6.985550 0.000000
				CHANNELS 3 Zrotation Yrotation Xrotation
				JOINT RightFoot
				{
					OFFSET -2.568260 -7.056230 0.000000
					CHANNELS 3 Zrotation Yrotation Xrotation
					JOINT RightToeBase
					{
						OFFSET -0.164730 -0.452590 2.363150
						CHANNELS 3 Zrotation Yrotation Xrotation
						End Site
						{
							OFFSET 0.000000 0.000000 0.000000
						}
					}
				}
			}
		}
	}
}
MOTION
Frames: 13
Frame Time: 0.008333
4.339370 15.422085 -1.427435 -168.892919 80.794706 -142.971662 -12.387710 -2.243352 -4.877173 -6.085034 6.853554 -52.628928 2.111293 6.358011 87.936428 3.663647 19.657600 -24.790096 -5.551000 0.000000 -5.587100 8.279735 0.483165 -5.364782 15.642062 -9.375274 -51.568169 1.696860 -5.482527 64.511288 -2.320394 -4.392194 -28.601007 2.311400 0.000000 -51.767400
4.499324 15.474370 -1.473370 -169.611394 80.534271 -143.760939 -12.235033 -2.313710 -4.755037 -6.531253 6.594527 -53.414346 1.913753 6.262431 86.650340 3.687986 19.513115 -25.090947 -5.619200 0.000000 -4.997601 8.337422 0.445284 -5.450216 15.261663 -9.830942 -50.337057 1.752487 -5.392114 63.703774 -2.283914 -4.403557 -28.193808 2.261300 -0.000000 -53.175699
4.661152 15.534010 -1.522580 -170.255376 80.224635 -144.472983 -12.081379 -2.380078 -4.631548 -6.973042 6.332125 -54.137712 1.698389 6.153943 85.184985 3.694331 19.254327 -25.317459 -5.629200 0.000000 -4.584700 8.388682 0.400015 -5.519823 14.858321 -10.200462 -48.998991 1.803752 -5.280965 62.738505 -2.251353 -4.484292 -27.642398 2.211700 -0.000000 -54.401900
4.825658 15.600774 -1.575482 -170.823844 79.867070 -145.097856 -11.926371 -2.440619 -4.499892 -7.414093 6.058213 -54.799892 1.466139 6.029186 83.525560 3.682173 18.880762 -25.450941 -5.574400 0.000000 -4.455500 8.433992 0.346201 -5.567294 14.439973 -10.476375 -47.581419 1.847129 -5.151532 61.632770 -2.223073 -4.636884 -26.937374 2.160000 -0.000000 -55.457101
4.993051 15.673905 -1.631928 -171.352804 79.463371 -145.661402 -11.767373 -2.493705 -4.355743 -7.865673 5.760468 -55.402662 1.217461 5.884980 81.661838 3.654973 18.407062 -25.504797 -5.464200 -0.000000 -4.539100 8.476055 0.285463 -5.587222 14.005284 -10.650670 -46.120594 1.878041 -5.008399 60.417522 -2.199271 -4.862401 -26.072402 2.102000 -0.000000 -56.412600
5.163878 15.753027 -1.692429 -171.840578 79.017036 -146.155273 -11.604629 -2.536889 -4.192919 -8.330250 5.430881 -55.943253 0.954346 5.718759 79.578484 3.616174 17.853309 -25.470767 -5.303100 0.000001 -4.875700 8.515304 0.217286 -5.578746 13.564421 -10.735907 -44.649874 1.894731 -4.856223 59.119805 -2.176210 -5.140841 -25.034381 2.026700 -0.000000 -57.356900
5.338254 15.837419 -1.757235 -172.298645 78.530439 -146.584653 -11.437682 -2.568378 -4.007282 -8.810901 5.060289 -56.419665 0.679210 5.528663 77.265403 3.571403 17.248192 -25.357123 -5.104099 0.000000 -5.420900 8.553049 0.142447 -5.543115 13.123138 -10.747673 -43.204302 1.895766 -4.700525 57.772032 -2.149425 -5.448009 -23.810121 1.922301 0.000000 -58.410901
5.516122 15.926381 -1.826660 -172.730747 78.006628 -146.950265 -11.266868 -2.586318 -3.796070 -9.308042 4.643084 -56.827764 0.395177 5.313728 74.715281 3.526725 16.623427 -25.172331 -4.880400 0.000000 -6.124700 8.590387 0.061555 -5.485125 12.688164 -10.712422 -41.814003 1.881293 -4.546851 56.405391 -2.112650 -5.749941 -22.383810 1.776400 0.000000 -59.694000
5.697266 16.019130 -1.900963 -173.134847 77.448432 -147.250662 -11.093168 -2.589100 -3.558399 -9.820049 4.177764 -57.161550 0.105894 5.073836 71.925942 3.488080 16.010495 -24.926443 -4.645300 -0.000000 -6.918400 8.628347 -0.024718 -5.412051 12.264992 -10.662580 -40.502819 1.852624 -4.400387 55.048530 -2.059086 -6.008621 -20.739187 1.578800 0.000000 -61.304600
5.881266 16.114760 -1.980349 -173.509851 76.859272 -147.488240 -10.917762 -2.575377 -3.295343 -10.345071 3.666800 -57.415036 -0.184873 4.809636 68.901685 3.460903 15.438168 -24.631925 -4.410600 0.000000 -7.720800 8.668109 -0.115476 -5.333157 11.857878 -10.634339 -39.287763 1.811728 -4.265801 53.727239 -1.982491 -6.186679 -18.860204 1.324900 -0.000000 -63.311900
6.067644 16.212306 -2.064844 -173.855120 76.242422 -147.668851 -10.742116 -2.543985 -3.009822 -10.882486 3.117476 -57.581842 -0.473538 4.522235 65.653645 3.449410 14.929539 -24.300713 -4.185199 0.000000 -8.451499 8.710904 -0.209598 -5.258240 11.468545 -10.663158 -38.177627 1.760839 -4.146797 52.462790 -1.878638 -6.252401 -16.734367 1.018100 -0.000000 -65.742400
6.255882 16.310811 -2.154329 -174.172356 75.602285 -147.802605 -10.567741 -2.494084 -2.706110 -11.433646 2.541311 -57.656575 -0.757171 4.212842 62.198428 3.456249 14.500239 -23.943260 -3.974900 -0.000000 -9.045900 8.757802 -0.305690 -5.196482 11.097009 -10.779682 -37.173611 1.702196 -4.045799 51.270830 -1.746638 -6.183677 -14.356770 0.671400 -0.000000 -68.528000
6.445462 16.409214 -2.248517 -174.466296 74.944361 -147.906056 -10.396285 -2.425143 -2.390755 -12.003869 1.955423 -57.630774 -1.033977 3.882503 58.557653 3.482218 14.157832 -23.569430 -3.782500 0.000000 -9.466200 8.809852 -0.401785 -5.156899 10.739875 -11.010205 -36.267108 1.637976 -3.964182 50.163856 -1.589398 -5.968372 -11.735892 0.306700 0.000000 -71.485700
